<svg id="Capa_1" data-name="Capa 1" xmlns="http://www.w3.org/2000/svg" viewBox="0 0 636 564"><title>Vikingo</title><path d="M603.29,46.15a7.39,7.39,0,0,0-7.2-5.85H466.27c-32.06,1.84-40,27.54-40.36,37.28v23.08c-22.1-26-53.45-42.41-90.85-47.62a26,26,0,0,0-43.31.15C254.86,58.57,223.89,75,202,100.68V77.44c0-.35-1.94-34.92-40.51-37.14H31.84a7.39,7.39,0,0,0-7.21,5.85c-.17.84-4.16,20.71,7.09,35.53,6.81,9,17.42,14,31.55,14.9h.65v3.67a30.52,30.52,0,0,0,5.62,15.41c4.65,6.67,14.19,15,33.24,17a7.17,7.17,0,0,0,.87.05l78.33-.6c-8,17.27-12.83,36.45-13.51,54.15a39.72,39.72,0,0,0-10,75.47,80,80,0,0,1-7.12,11.64c-38.35,43-34.4,81.76-33.52,87.7.27,38.62,16.77,71.51,47.73,95.13a162.51,162.51,0,0,0,52.87,26.34c20.23,18.8,42.92,31.31,67.47,37.21,6.23,1.5,8.76-1.79,9.55-3.27a7.93,7.93,0,0,0,1-5c-.74-4.58-5.47-5.65-7.25-6.05C274,502,251,493.16,227.15,470.57a7.39,7.39,0,0,0-3.45-1.84,144.29,144.29,0,0,1-46.22-22c-29.72-21.38-44.84-50.42-44.94-86.3a7.53,7.53,0,0,0-.1-1.25c0-.09-1.46-9.23,1.56-23.19,2.77-12.75,10-32.3,28.5-53l.15-.17c1.1-1.37,27-33.93,21-82.13,0-.11,0-.21,0-.32h26.81c0,12,1.85,36.35,14.65,58.19C201,280.35,185.94,312,184.63,344.16a258.84,258.84,0,0,1-4.19,37.32l-.24,1.31a78.05,78.05,0,0,1-4.65,16.86,5.56,5.56,0,0,0-.41,1.15c-1.74,7.57,1.21,13.67,7.51,15.56a13.65,13.65,0,0,0,10.07-1.12c9-4.62,17.35-12.15,22.85-17.42A121.34,121.34,0,0,0,240.94,362c1.27-2.68,2.5-5.41,3.69-8.05l.1-.21c4.65-10.32,9-20.06,16.08-28.14,11.3-13,28.63-30.35,48.65-31.25h4.66c20,.9,37.34,18.26,48.64,31.25,7,8.08,11.43,17.82,16.09,28.14l.11.26c1.19,2.62,2.41,5.33,3.68,8A121,121,0,0,0,408,397.82c5.49,5.27,13.83,12.8,22.85,17.43a13.79,13.79,0,0,0,10.07,1.11c6.3-1.88,9.24-8,7.5-15.54a5,5,0,0,0-.42-1.19,79,79,0,0,1-4.64-16.87l-.24-1.28a258.36,258.36,0,0,1-4.19-37.32,122.7,122.7,0,0,0-37.67-83c14.21-22.46,16.2-48.29,16.22-60.78h26.8c0,.11,0,.21,0,.32-6,48.32,20,80.87,21.11,82.23l.14.16c18.5,20.68,25.67,40.2,28.42,52.94,3,14,1.58,23.1,1.57,23.18a6.75,6.75,0,0,0-.11,1.25c-.1,35.87-15.23,64.9-45,86.3a144.93,144.93,0,0,1-46.2,22,7.49,7.49,0,0,0-3.44,1.84c-28.39,26.94-56.28,34.32-70.42,36.33a14.44,14.44,0,1,0,.74,14.87c17.46-2.09,47.24-10.21,78.42-39.2a162.59,162.59,0,0,0,52.86-26.34c31-23.62,47.46-56.51,47.73-95.13.88-5.94,4.84-44.74-33.45-87.61a79.07,79.07,0,0,1-7.18-11.74,39.72,39.72,0,0,0-10-75.46c-.69-17.7-5.49-36.88-13.52-54.15l78.39.6c.27,0,.54,0,.76,0,37.6-3.91,38.91-32.24,38.91-32.53V96.59l.8,0c14-.92,24.59-5.93,31.39-14.89C607.46,66.86,603.47,47,603.29,46.15ZM164.21,248.23a25,25,0,0,1,4.7-47c.05.46.1.9.15,1.33A100.48,100.48,0,0,1,164.21,248.23ZM318.36,520a5,5,0,1,1,5-5A5,5,0,0,1,318.36,520Zm140.5-317.43h0c.05-.43.1-.88.15-1.33a25,25,0,0,1,4.7,47A100.42,100.42,0,0,1,458.86,202.53Zm-156.71-135a11,11,0,0,1,.46-3.16l2.83-4.78a11.22,11.22,0,0,1,16-.06l2.86,4.75a11,11,0,0,1,.49,3.25V215.36a11.31,11.31,0,0,1-7.83,10.74c-.35,0-.71,0-1.12,0a7,7,0,0,0-2.81.59,11.32,11.32,0,0,1-10.85-11.3Zm-11.68,160a129.61,129.61,0,0,0-53.72,21.75c-10-18.21-11.51-38.61-11.56-48.9h14.15a17.46,17.46,0,0,0,32.08,0h16v15A25.94,25.94,0,0,0,290.47,227.54ZM104,118c-23.55-2.61-25.22-16.82-25.32-18.13V96.65h25a11.71,11.71,0,1,0-2.15-14.73H70.82l-6.88,0c-9.49-.65-16.39-3.7-20.48-9.08C39.23,67.25,38.45,60,38.53,55h122.4c10.51.63,18.11,4.6,22.57,11.78a26.56,26.56,0,0,1,3.79,11.12v39.46Zm79.25,67.66c.89-18.35,6.68-38.23,16.21-55.41A7.33,7.33,0,0,0,201.9,126a120.87,120.87,0,0,1,10.7-15c18.26-21.84,44-36.33,74.82-42.12V185.67Zm241,159.1a271.89,271.89,0,0,0,4.44,39.44l.24,1.28a88,88,0,0,0,3.23,13.39A114,114,0,0,1,418.2,387.2a106.52,106.52,0,0,1-22.26-31.53c-1.26-2.65-2.49-5.37-3.68-8-4.88-10.83-9.94-22-18.39-31.75-13.1-15.06-33.5-35.21-59.23-36.29h-5.71c-25.72,1.08-46.12,21.23-59.23,36.29-8.45,9.71-13.5,20.91-18.39,31.76-1.19,2.63-2.42,5.35-3.67,8a106.89,106.89,0,0,1-22.26,31.53,114,114,0,0,1-13.95,11.67,87.67,87.67,0,0,0,3.23-13.36l.25-1.3a273.94,273.94,0,0,0,4.43-39.44,108.37,108.37,0,0,1,41.56-80.28c18.9-14.63,43.92-23.49,66.93-23.7H308a25.33,25.33,0,0,0,10.51.09c22.21.86,46.15,9.66,64.17,23.61A108.34,108.34,0,0,1,424.23,344.77Zm-34.31-93.26a130.2,130.2,0,0,0-53.77-23.44,26,26,0,0,0,3.33-12.71v-15h17a17.47,17.47,0,0,0,32.09,0h14.14C402.69,211.15,401,232.76,389.92,251.51Zm-50.44-65.84v-117c31.23,5.66,57.36,20.22,75.85,42.33A123,123,0,0,1,426,126a7.26,7.26,0,0,0,2.47,4.27c9.53,17.18,15.32,37.06,16.21,55.41Zm245-112.88h0c-4.09,5.38-10.92,8.43-20.31,9.07l-33.8,0a12,12,0,0,0-1.74-2.22,11.72,11.72,0,1,0-.4,17h21.08v3.14c-.1,1.32-1.72,15.61-25.33,18.22l-83.33-.63V78c.11-1.76,1.94-21.53,26.21-23H589.4C589.47,60,588.69,67.25,584.46,72.79Z"/></svg>